<svg width="79" height="77" viewBox="0 0 79 77" fill="none" xmlns="http://www.w3.org/2000/svg">
<path d="M42.896 67.9875L37.7957 59.2442L36.9043 57.7161L35.5425 58.8454L20.6525 71.1932L28.8357 55.1827L29.7222 53.4481L27.8186 53.0342L19.6029 51.2482L25.8782 46.716L27.4959 45.5477L25.9241 44.3184L10.6507 32.3734L31.073 38.4379L32.5962 38.8903L32.9601 37.3436L39.4528 9.7496L45.5352 37.3231L45.8675 38.8293L47.3638 38.4552L63.1634 34.5053L53.8139 46.5817L52.7928 47.9007L54.2123 48.7766L71.3401 59.3447L47.2352 55.5185L45.8564 55.2997L45.5392 56.6592L42.896 67.9875Z" fill="black" stroke="black" stroke-width="3"/>
<path d="M39.896 64.9875L34.7957 56.2442L33.9043 54.7161L32.5425 55.8454L17.6525 68.1932L25.8357 52.1827L26.7222 50.4481L24.8186 50.0342L16.6029 48.2482L22.8782 43.716L24.4959 42.5477L22.9241 41.3184L7.65072 29.3734L28.073 35.4379L29.5962 35.8903L29.9601 34.3436L36.4528 6.7496L42.5352 34.3231L42.8675 35.8293L44.3638 35.4552L60.1634 31.5053L50.8139 43.5817L49.7928 44.9007L51.2123 45.7766L68.3401 56.3447L44.2352 52.5185L42.8564 52.2997L42.5392 53.6592L39.896 64.9875Z" fill="#0ba327" stroke="black" stroke-width="3"/>
</svg>
