<svg width="54" height="34" viewBox="0 0 54 34" fill="none" xmlns="http://www.w3.org/2000/svg">
<path d="M27.0645 33.9117C26.5296 33.9117 13.8343 33.8007 4.12313 24.0859C3.91751 23.8821 3.71736 23.6747 3.52084 23.4673C1.48654 21.3238 0.522155 18.7727 0.725949 16.0925C0.907908 13.727 1.99966 11.4361 3.79196 9.6384C5.58426 7.8406 7.8824 6.7525 10.246 6.5724C12.7225 6.3904 15.0898 7.1947 17.1296 8.9233C17.3497 6.2594 18.4488 4.0104 20.3339 2.39458C22.1334 0.84974 24.5189 0 27.0664 0C29.6138 0 31.9993 0.84974 33.7988 2.39458C35.6821 4.0122 36.783 6.2594 37.0031 8.9233C39.0429 7.1947 41.4102 6.3758 43.8866 6.5724C46.2521 6.7543 48.543 7.8461 50.3389 9.6384C52.1349 11.4307 53.2266 13.7288 53.4049 16.0925C53.6105 18.7727 52.6443 21.3238 50.6119 23.4709C50.4153 23.6783 50.2152 23.8858 50.0096 24.0896C40.2966 33.8007 27.6013 33.9117 27.0645 33.9117ZM10.9484 8.5612C8.74671 8.5612 6.67965 9.5856 5.20942 11.054C2.56737 13.6979 1.36645 18.2796 4.97651 22.0953C5.1609 22.2906 5.34892 22.4841 5.54059 22.6757C14.6713 31.8046 26.9444 31.9102 27.0664 31.9102C27.1883 31.9102 39.4869 31.7828 48.5939 22.6757C48.7868 22.4829 48.9748 22.2894 49.158 22.0953C52.7681 18.2742 51.5671 13.6979 48.9251 11.054C46.2831 8.4101 41.6995 7.2092 37.8784 10.8211C37.6831 11.0043 37.4896 11.1923 37.2979 11.3852C37.1505 11.5326 37.0068 11.6836 36.8648 11.8346L34.967 13.8471L35.0416 11.0849C35.0416 10.8739 35.0544 10.6646 35.0544 10.4517C35.0544 10.1788 35.0544 9.9059 35.0434 9.642C34.8979 4.3925 30.8092 1.99973 27.07 1.99973C23.3307 1.99973 19.2457 4.3907 19.0984 9.642C19.0984 9.9095 19.0874 10.1879 19.0874 10.4517C19.0874 10.6592 19.0874 10.863 19.0984 11.0686L19.173 13.8471L17.2733 11.8455C17.1296 11.6927 16.984 11.5398 16.8348 11.3888C16.6419 11.1959 16.4484 11.0079 16.2543 10.8247C14.553 9.2108 12.7061 8.5612 10.9484 8.5612Z" fill="#00501E"/>
<path d="M25.7818 23.3107H24.3261C24.3261 21.1435 22.2154 19.3785 19.6243 19.3785C17.0332 19.3785 14.9225 21.1435 14.9225 23.3107H13.4668C13.4668 20.3393 16.2289 17.9229 19.6243 17.9229C23.0196 17.9229 25.7818 20.3393 25.7818 23.3107Z" fill="#00501E"/>
<path d="M40.5826 23.2507H39.1269C39.1269 21.0836 37.018 19.3204 34.4251 19.3204C31.8322 19.3204 29.7233 21.0836 29.7233 23.2507H28.2676C28.2676 20.2812 31.0297 17.8647 34.4251 17.8647C37.8204 17.8647 40.5826 20.2812 40.5826 23.2507Z" fill="#00501E"/>
<path d="M21.3004 23.3415C22.4571 23.3415 23.3948 22.4039 23.3948 21.2472C23.3948 20.0905 22.4571 19.1528 21.3004 19.1528C20.1437 19.1528 19.2061 20.0905 19.2061 21.2472C19.2061 22.4039 20.1437 23.3415 21.3004 23.3415Z" fill="#00501E"/>
<path d="M36.0026 23.3415C37.1592 23.3415 38.0969 22.4039 38.0969 21.2472C38.0969 20.0905 37.1592 19.1528 36.0026 19.1528C34.8459 19.1528 33.9082 20.0905 33.9082 21.2472C33.9082 22.4039 34.8459 23.3415 36.0026 23.3415Z" fill="#00501E"/>
<path d="M27.0593 28.662C25.3435 28.662 23.7531 27.7795 23.0107 26.4148L24.2845 25.7197C24.7776 26.6295 25.8639 27.2063 27.0557 27.2063C28.2475 27.2063 29.3356 26.6222 29.8269 25.7197L31.1006 26.4148C30.3655 27.7795 28.7807 28.662 27.0593 28.662Z" fill="#00501E"/>
</svg>
