<svg width="54" height="74" viewBox="0 0 54 74" fill="none" xmlns="http://www.w3.org/2000/svg">
<mask id="mask0_56_21" style="mask-type:luminance" maskUnits="userSpaceOnUse" x="0" y="0" width="54" height="74">
<path d="M54 0H0V73.193H54V0Z" fill="white"/>
</mask>
<g mask="url(#mask0_56_21)">
<path d="M0.642578 72.8548V55.9927H2.66596V71.0243H11.4691V72.8548H0.642578Z" fill="#00501E"/>
<path d="M13.5244 72.8548V55.9927H23.907V57.8232H15.5478V63.4639H22.3221V65.2944H15.5478V71.028H24.0271V72.8585L13.5244 72.8548Z" fill="#00501E"/>
<path d="M26.002 72.8548V55.9927H30.2925L36.1698 71.5793H36.8467V55.9927H38.8483V72.8548H34.5559L28.7022 57.2482H28.0017V72.8566L26.002 72.8548Z" fill="#00501E"/>
<path d="M47.4075 73.1912C46.282 73.2101 45.1654 72.9886 44.1323 72.5416C43.1943 72.1295 42.4014 71.4456 41.856 70.5783C41.3028 69.7025 41.0256 68.6065 41.0244 67.2903V66.7845H43.026V67.2903C43.026 68.6878 43.4354 69.7273 44.2542 70.4091C45.073 71.0908 46.1241 71.4347 47.4075 71.4408C48.7237 71.4408 49.7269 71.1436 50.4171 70.5492C50.748 70.2785 51.0132 69.9362 51.1929 69.5483C51.3725 69.1603 51.4619 68.7367 51.4543 68.3093C51.4833 67.7707 51.3158 67.2399 50.983 66.8154C50.625 66.4113 50.175 66.0993 49.6711 65.9056C49.033 65.6481 48.3752 65.4424 47.7041 65.2906L46.4523 64.9776C45.5561 64.7512 44.6845 64.4367 43.8502 64.0387C43.1461 63.7117 42.5368 63.2107 42.0798 62.583C41.654 61.9765 41.4411 61.2014 41.4411 60.2576C41.4192 59.385 41.6677 58.527 42.1526 57.8011C42.6525 57.0892 43.3476 56.5369 44.1541 56.2108C45.0982 55.828 46.1106 55.6423 47.1291 55.6649C48.1826 55.6481 49.2282 55.8488 50.2006 56.2545C51.0604 56.6144 51.8 57.2114 52.3332 57.9758C52.856 58.74 53.1168 59.6996 53.1156 60.8544V61.8661H51.114V60.8544C51.114 60.0356 50.9418 59.3775 50.5973 58.8802C50.2455 58.3765 49.7504 57.9904 49.1762 57.772C48.5192 57.5199 47.82 57.3964 47.1164 57.4081C46.0089 57.4081 45.1173 57.6507 44.4416 58.1359C43.7659 58.6212 43.4287 59.3156 43.4299 60.2194C43.4062 60.7361 43.5589 61.2456 43.863 61.6641C44.1903 62.0656 44.6133 62.3784 45.093 62.5739C45.7071 62.8351 46.3435 63.0403 46.9945 63.1871L48.2482 63.5019C49.1565 63.6866 50.041 63.9735 50.8848 64.3571C51.62 64.6829 52.2618 65.1878 52.7517 65.8255C53.2175 66.4442 53.4504 67.2515 53.4504 68.2474C53.4711 69.1697 53.211 70.0766 52.7044 70.8476C52.1783 71.609 51.4479 72.2063 50.5973 72.5708C49.5902 73.002 48.5028 73.2135 47.4075 73.1912Z" fill="#00501E"/>
<path d="M27.0645 33.9117C26.5296 33.9117 13.8343 33.8007 4.12313 24.0859C3.91751 23.8821 3.71736 23.6747 3.52084 23.4673C1.48654 21.3238 0.522155 18.7727 0.725949 16.0925C0.907908 13.727 1.99966 11.4361 3.79196 9.6384C5.58426 7.8406 7.8824 6.7525 10.246 6.5724C12.7225 6.3904 15.0898 7.1947 17.1296 8.9233C17.3497 6.2594 18.4488 4.0104 20.3339 2.39458C22.1334 0.84974 24.5189 0 27.0664 0C29.6138 0 31.9993 0.84974 33.7988 2.39458C35.6821 4.0122 36.783 6.2594 37.0031 8.9233C39.0429 7.1947 41.4102 6.3758 43.8866 6.5724C46.2521 6.7543 48.543 7.8461 50.3389 9.6384C52.1349 11.4307 53.2266 13.7288 53.4049 16.0925C53.6105 18.7727 52.6443 21.3238 50.6119 23.4709C50.4153 23.6783 50.2152 23.8858 50.0096 24.0896C40.2966 33.8007 27.6013 33.9117 27.0645 33.9117ZM10.9484 8.5612C8.74671 8.5612 6.67965 9.5856 5.20942 11.054C2.56737 13.6979 1.36645 18.2796 4.97651 22.0953C5.1609 22.2906 5.34892 22.4841 5.54059 22.6757C14.6713 31.8046 26.9444 31.9102 27.0664 31.9102C27.1883 31.9102 39.4869 31.7828 48.5939 22.6757C48.7868 22.4829 48.9748 22.2894 49.158 22.0953C52.7681 18.2742 51.5671 13.6979 48.9251 11.054C46.2831 8.4101 41.6995 7.2092 37.8784 10.8211C37.6831 11.0043 37.4896 11.1923 37.2979 11.3852C37.1505 11.5326 37.0068 11.6836 36.8648 11.8346L34.967 13.8471L35.0416 11.0849C35.0416 10.8739 35.0544 10.6646 35.0544 10.4517C35.0544 10.1788 35.0544 9.9059 35.0434 9.642C34.8979 4.3925 30.8092 1.99973 27.07 1.99973C23.3307 1.99973 19.2457 4.3907 19.0984 9.642C19.0984 9.9095 19.0874 10.1879 19.0874 10.4517C19.0874 10.6592 19.0874 10.863 19.0984 11.0686L19.173 13.8471L17.2733 11.8455C17.1296 11.6927 16.984 11.5398 16.8348 11.3888C16.6419 11.1959 16.4484 11.0079 16.2543 10.8247C14.553 9.2108 12.7061 8.5612 10.9484 8.5612Z" fill="#00501E"/>
<path d="M25.7818 23.3107H24.3261C24.3261 21.1435 22.2154 19.3785 19.6243 19.3785C17.0332 19.3785 14.9225 21.1435 14.9225 23.3107H13.4668C13.4668 20.3393 16.2289 17.9229 19.6243 17.9229C23.0196 17.9229 25.7818 20.3393 25.7818 23.3107Z" fill="#00501E"/>
<path d="M40.5826 23.2507H39.1269C39.1269 21.0836 37.018 19.3204 34.4251 19.3204C31.8322 19.3204 29.7233 21.0836 29.7233 23.2507H28.2676C28.2676 20.2812 31.0297 17.8647 34.4251 17.8647C37.8204 17.8647 40.5826 20.2812 40.5826 23.2507Z" fill="#00501E"/>
<path d="M21.3004 23.3415C22.4571 23.3415 23.3948 22.4039 23.3948 21.2472C23.3948 20.0905 22.4571 19.1528 21.3004 19.1528C20.1437 19.1528 19.2061 20.0905 19.2061 21.2472C19.2061 22.4039 20.1437 23.3415 21.3004 23.3415Z" fill="#00501E"/>
<path d="M36.0026 23.3415C37.1592 23.3415 38.0969 22.4039 38.0969 21.2472C38.0969 20.0905 37.1592 19.1528 36.0026 19.1528C34.8459 19.1528 33.9082 20.0905 33.9082 21.2472C33.9082 22.4039 34.8459 23.3415 36.0026 23.3415Z" fill="#00501E"/>
<path d="M27.0593 28.662C25.3435 28.662 23.7531 27.7795 23.0107 26.4148L24.2845 25.7197C24.7776 26.6295 25.8639 27.2063 27.0557 27.2063C28.2475 27.2063 29.3356 26.6222 29.8269 25.7197L31.1006 26.4148C30.3655 27.7795 28.7807 28.662 27.0593 28.662Z" fill="#00501E"/>
<path d="M53.1469 48.8398C49.4993 50.5478 45.3877 50.9958 41.4578 50.1135C38.205 49.3923 35.2188 47.7757 32.8366 45.4463C34.3447 46.0713 35.9624 46.3892 37.5948 46.3816C40.4174 46.3822 43.1703 45.5046 45.4718 43.8705L44.3037 42.2438C41.154 44.511 36.8215 45.0569 33.4025 43.5121C30.029 41.9927 28.1257 38.7411 28.0038 34.3322V32.9111H26.0022V33.1622V34.3213C25.8858 38.7356 23.9788 41.9909 20.6017 43.5121C17.1827 45.0533 12.8429 44.5147 9.70051 42.2384L8.53415 43.8651C10.8342 45.4998 13.5857 46.3786 16.4075 46.3797C18.04 46.3877 19.6577 46.0698 21.1657 45.4445C18.7842 47.7738 15.7986 49.3905 12.5463 50.1117C8.6165 50.9941 4.50486 50.5461 0.857295 48.838L0.00390625 50.6485C2.68265 51.9059 5.60593 52.5564 8.56508 52.5536C10.0519 52.5541 11.5342 52.39 12.9849 52.0641C17.4363 51.0759 21.4128 48.5879 24.2481 45.0169L24.2609 45.0005C24.9262 44.1277 25.5103 43.1958 26.0059 42.2165V52.5172H28.0074V42.2311C28.5022 43.2055 29.0845 44.1331 29.7469 45.0023L29.7597 45.0187C32.5947 48.5892 36.5705 51.0772 41.0211 52.066C42.4718 52.3918 43.9541 52.556 45.4409 52.5554C48.4007 52.5582 51.3245 51.9077 54.0039 50.6503L53.1469 48.8398Z" fill="#00501E"/>
</g>
</svg>
